<svg width="77" height="77" viewBox="0 0 77 77" fill="none" xmlns="http://www.w3.org/2000/svg">
<path d="M8.5 30.5C6.13638 30.5 4.12784 31.2901 2.70895 32.7089C1.29006 34.1278 0.5 36.1364 0.5 38.5C0.5 40.8636 1.29006 42.8722 2.70895 44.2911C4.12784 45.7099 6.13638 46.5 8.5 46.5H30.5V68.5C30.5 70.8636 31.2901 72.8722 32.7089 74.2911C34.1278 75.7099 36.1364 76.5 38.5 76.5C40.8636 76.5 42.8722 75.7099 44.2911 74.2911C45.7099 72.8722 46.5 70.8636 46.5 68.5V46.5H68.5C70.8636 46.5 72.8722 45.7099 74.2911 44.2911C75.7099 42.8722 76.5 40.8636 76.5 38.5C76.5 36.1364 75.7099 34.1278 74.2911 32.7089C72.8722 31.2901 70.8636 30.5 68.5 30.5H46.5V8.5C46.5 6.13638 45.7099 4.12784 44.2911 2.70895C42.8722 1.29006 40.8636 0.5 38.5 0.5C36.1364 0.5 34.1278 1.29006 32.7089 2.70895C31.2901 4.12784 30.5 6.13638 30.5 8.5V30.5H8.5Z" fill="#A3BE8C" stroke="#2E3440"/>
</svg>
