<svg width="61" height="61" viewBox="0 0 61 61" fill="none" xmlns="http://www.w3.org/2000/svg">
<path d="M3.62994 46.0563C1.95861 47.7277 1.09701 49.7066 1.09701 51.7132C1.09701 53.7198 1.95861 55.6987 3.62994 57.3701C5.30128 59.0414 7.28018 59.903 9.2868 59.903C11.2934 59.903 13.2723 59.0414 14.9436 57.3701L30.5 41.8137L46.0563 57.3701C47.7277 59.0414 49.7066 59.903 51.7132 59.903C53.7198 59.903 55.6987 59.0414 57.3701 57.3701C59.0414 55.6987 59.903 53.7198 59.903 51.7132C59.903 49.7066 59.0414 47.7277 57.3701 46.0563L41.8137 30.5L57.3701 14.9437C59.0414 13.2723 59.903 11.2934 59.903 9.2868C59.903 7.28018 59.0414 5.30128 57.3701 3.62994C55.6987 1.95861 53.7198 1.09701 51.7132 1.09701C49.7066 1.09701 47.7277 1.95861 46.0563 3.62994L30.5 19.1863L14.9437 3.62994C13.2723 1.95861 11.2934 1.09701 9.2868 1.09701C7.28018 1.09701 5.30128 1.95861 3.62994 3.62994C1.95861 5.30128 1.09701 7.28018 1.09701 9.2868C1.09701 11.2934 1.95861 13.2723 3.62994 14.9437L19.1863 30.5L3.62994 46.0563Z" fill="#BF616A" stroke="#2E3440"/>
</svg>
